<?xml version="1.0" encoding="UTF-8" standalone="no"?> <svg xmlns:dc="http://purl.org/dc/elements/1.1/" xmlns:cc="http://creativecommons.org/ns#" xmlns:rdf="http://www.w3.org/1999/02/22-rdf-syntax-ns#" xmlns:svg="http://www.w3.org/2000/svg" xmlns="http://www.w3.org/2000/svg" xmlns:sodipodi="http://sodipodi.sourceforge.net/DTD/sodipodi-0.dtd" xmlns:inkscape="http://www.inkscape.org/namespaces/inkscape" width="210mm" height="41mm" viewBox="0 0 210 41" version="1.1" id="svg8" inkscape:version="1.0.1 (3bc2e813f5, 2020-09-07)" sodipodi:docname="aspilsan-en-white.svg"><defs id="defs2"><clipPath id="clipPath849"><path d="M 0,595.275 H 841.89 V 0 H 0 Z" id="path847"></path></clipPath><clipPath id="clipPath929"><path d="m 138.052,339.107 c -1.013,-1.226 -1.589,-2.833 -1.589,-4.548 v 0 c 0,-3.917 3.176,-7.093 7.094,-7.093 v 0 c 1.943,0 3.691,0.75 4.973,2.017 v 0 c 0.001,-0.003 0.006,0.004 0.011,0.011 v 0 c 0.006,0.006 0.011,0.012 0.013,0.011 v 0 c 5.262,5.49 12.595,8.686 20.284,8.686 v 0 c 5.497,0 10.79,-1.595 15.316,-4.548 v 0 c 0,0 1.628,-0.948 3.562,-0.96 v 0 c 3.924,-0.025 7.141,3.217 7.141,7.142 v 0 c 0,2.321 -1.118,4.376 -2.838,5.672 v 0 c -0.316,0.208 -0.635,0.414 -0.957,0.614 v 0 c -6.628,4.101 -14.285,6.309 -22.224,6.309 v 0 c -11.69,0 -22.846,-4.907 -30.786,-13.313" id="path927"></path></clipPath><linearGradient x1="0" y1="0" x2="1" y2="0" gradientUnits="userSpaceOnUse" gradientTransform="matrix(-58.393097,0,0,58.393097,194.85674,339.94308)" spreadMethod="pad" id="linearGradient941"><stop style="stop-opacity:1;stop-color:#0b3b6a" offset="0" id="stop935"></stop><stop style="stop-opacity:1;stop-color:#00accf" offset="0.99851222" id="stop937"></stop><stop style="stop-opacity:1;stop-color:#00accf" offset="1" id="stop939"></stop></linearGradient><clipPath id="clipPath951"><path d="m 151.435,317.231 h -6.511 c -14.118,0 -19.468,-11.443 -15.394,-22.133 v 0 c 0.185,-0.487 0.383,-0.968 0.587,-1.447 v 0 c 0.049,-0.119 0.101,-0.237 0.153,-0.356 v 0 c 0.11,-0.253 0.223,-0.505 0.337,-0.754 v 0 c 0.082,-0.179 0.164,-0.356 0.248,-0.533 v 0 c 0.13,-0.273 0.262,-0.542 0.398,-0.812 v 0 c 0.072,-0.143 0.142,-0.288 0.216,-0.43 v 0 c 0.007,-0.015 0.016,-0.03 0.024,-0.045 v 0 c 0.004,0.002 -0.002,0.045 -0.014,0.112 v 0 c -0.201,1.178 -2.349,11.77 10.417,12.174 v 0 c 0.007,0 0.012,0 0.019,0 v 0 h 38.319 c 3.923,0 7.114,3.191 7.114,7.114 v 0 c 0,3.894 -3.148,7.064 -7.031,7.11 v 0 z" id="path949"></path></clipPath><linearGradient x1="0" y1="0" x2="1" y2="0" gradientUnits="userSpaceOnUse" gradientTransform="matrix(-59.145409,0,0,59.145409,187.34761,303.97595)" spreadMethod="pad" id="linearGradient963"><stop style="stop-opacity:1;stop-color:#0b3b6a" offset="0" id="stop957"></stop><stop style="stop-opacity:1;stop-color:#00accf" offset="0.99851222" id="stop959"></stop><stop style="stop-opacity:1;stop-color:#00accf" offset="1" id="stop961"></stop></linearGradient><clipPath id="clipPath973"><path d="m 259.982,290.759 c -0.003,0.002 -0.008,-0.004 -0.013,-0.011 v 0 c -0.005,-0.007 -0.01,-0.013 -0.011,-0.011 v 0 c -5.263,-5.49 -12.597,-8.686 -20.284,-8.686 v 0 c -5.498,0 -10.791,1.595 -15.317,4.549 v 0 c 0,0 -1.628,0.947 -3.561,0.96 v 0 c -3.926,0.024 -7.141,-3.218 -7.141,-7.142 v 0 c 0,-2.322 1.116,-4.376 2.837,-5.673 v 0 c 0.317,-0.208 0.636,-0.414 0.958,-0.613 v 0 c 6.627,-4.102 14.284,-6.31 22.224,-6.31 v 0 c 11.69,0 22.846,4.907 30.785,13.313 v 0 c 1.013,1.226 1.589,2.833 1.589,4.548 v 0 c 0,3.917 -3.176,7.093 -7.093,7.093 v 0 c -1.943,0 -3.692,-0.749 -4.973,-2.017" id="path971"></path></clipPath><linearGradient x1="0" y1="0" x2="1" y2="0" gradientUnits="userSpaceOnUse" gradientTransform="matrix(58.393097,0,0,-58.393097,213.65474,280.29935)" spreadMethod="pad" id="linearGradient985"><stop style="stop-opacity:1;stop-color:#0b3b6a" offset="0" id="stop979"></stop><stop style="stop-opacity:1;stop-color:#00accf" offset="0.99851222" id="stop981"></stop><stop style="stop-opacity:1;stop-color:#00accf" offset="1" id="stop983"></stop></linearGradient><clipPath id="clipPath995"><path d="m 277.032,329.409 c 0.202,-1.178 2.35,-11.77 -10.417,-12.173 v 0 c -0.006,0 -0.012,0 -0.018,0 v 0 h -38.319 c -3.923,0 -7.115,-3.192 -7.115,-7.114 v 0 c 0,-3.895 3.148,-7.065 7.032,-7.111 v 0 h 28.882 6.51 c 14.119,0 19.469,11.443 15.394,22.133 v 0 c -0.185,0.487 -0.383,0.968 -0.586,1.447 v 0 c -0.051,0.119 -0.102,0.238 -0.154,0.356 v 0 c -0.109,0.253 -0.222,0.505 -0.336,0.755 v 0 c -0.082,0.178 -0.164,0.356 -0.249,0.532 v 0 c -0.129,0.273 -0.263,0.543 -0.398,0.812 v 0 c -0.072,0.143 -0.142,0.288 -0.216,0.431 v 0 c -0.008,0.015 -0.015,0.029 -0.023,0.044 v 0 c -0.005,-0.001 0.002,-0.044 0.013,-0.112" id="path993"></path></clipPath><linearGradient x1="0" y1="0" x2="1" y2="0" gradientUnits="userSpaceOnUse" gradientTransform="matrix(59.145409,0,0,-59.145409,221.16386,316.26648)" spreadMethod="pad" id="linearGradient1007"><stop style="stop-opacity:1;stop-color:#0b3b6a" offset="0" id="stop1001"></stop><stop style="stop-opacity:1;stop-color:#00accf" offset="0.99851222" id="stop1003"></stop><stop style="stop-opacity:1;stop-color:#00accf" offset="1" id="stop1005"></stop></linearGradient><clipPath id="clipPath1017"><path d="m 197.141,310.122 v -0.023 c -0.011,-15.468 -12.599,-28.048 -28.07,-28.048 v 0 c -12.723,0 -23.951,8.739 -27.155,20.952 v 0 c 0,0 -0.014,0.002 -0.02,0.004 v 0 c -12.766,-0.404 -10.618,-10.996 -10.417,-12.174 v 0 c 0.017,-0.06 0.026,-0.105 0.014,-0.112 v 0 c 7.045,-13.59 21.244,-22.899 37.578,-22.899 v 0 c 23.324,0 42.299,18.976 42.299,42.299 v 0 0.023 h -0.001 c 0.013,15.468 12.6,28.048 28.071,28.048 v 0 c 12.723,0 23.951,-8.741 27.156,-20.952 v 0 c 0,0 0.013,-0.003 0.019,-0.004 v 0 c 12.767,0.403 10.619,10.995 10.417,12.173 v 0 c -0.016,0.06 -0.025,0.106 -0.013,0.113 v 0 c -7.045,13.589 -21.244,22.898 -37.579,22.898 v 0 c -23.323,0 -42.299,-18.975 -42.299,-42.298" id="path1015"></path></clipPath><linearGradient x1="0" y1="0" x2="1" y2="0" gradientUnits="userSpaceOnUse" gradientTransform="matrix(146.06685,0,0,-146.06685,131.22231,310.12131)" spreadMethod="pad" id="linearGradient1035"><stop style="stop-opacity:1;stop-color:#0b3b6a" offset="0" id="stop1023"></stop><stop style="stop-opacity:1;stop-color:#00accf" offset="0.38144817" id="stop1025"></stop><stop style="stop-opacity:1;stop-color:#00accf" offset="0.499247" id="stop1027"></stop><stop style="stop-opacity:1;stop-color:#00accf" offset="0.63070994" id="stop1029"></stop><stop style="stop-opacity:1;stop-color:#0b3b6a" offset="0.999036" id="stop1031"></stop><stop style="stop-opacity:1;stop-color:#0b3b6a" offset="1" id="stop1033"></stop></linearGradient><clipPath id="clipPath1045"><path d="M 0,595.275 H 841.89 V 0 H 0 Z" id="path1043"></path></clipPath></defs><metadata id="metadata5"></metadata><g inkscape:label="Katman 1" inkscape:groupmode="layer" id="layer1"><g id="g841" inkscape:label="aspilsan_logo_en" transform="matrix(0.35642971,0,0,-0.35642971,-44.960029,126.56014)"><g id="g843" style="fill:#ffffff"><g id="g845" clip-path="url(#clipPath849)" style="fill:#ffffff"><g id="g851" transform="translate(493.7241,248.1875)" style="fill:#ffffff"><path d="M 0,0 C 0.166,0 0.237,-0.071 0.261,-0.237 0.284,-0.402 0.308,-0.616 0.308,-0.853 0.308,-1.09 0.284,-1.303 0.261,-1.469 0.237,-1.635 0.166,-1.706 0,-1.706 h -10.095 c -0.308,0 -0.474,0.143 -0.474,0.45 v 13.033 c 0,0.309 0.166,0.451 0.474,0.451 h 9.763 c 0.189,0 0.261,-0.047 0.284,-0.237 0.025,-0.38 0.025,-0.877 0,-1.232 -0.023,-0.19 -0.095,-0.238 -0.284,-0.238 h -7.844 c -0.166,0 -0.261,-0.094 -0.261,-0.26 V 6.588 c 0,-0.166 0.095,-0.237 0.261,-0.237 h 5.095 c 0.166,0 0.237,-0.071 0.261,-0.237 0.024,-0.166 0.048,-0.38 0.048,-0.616 0,-0.237 -0.024,-0.45 -0.048,-0.616 C -2.844,4.716 -2.915,4.645 -3.081,4.645 h -5.095 c -0.166,0 -0.261,-0.095 -0.261,-0.261 V 0.261 C -8.437,0.095 -8.342,0 -8.176,0 Z" style="fill:#ffffff;fill-opacity:1;fill-rule:nonzero;stroke:none" id="path853"></path></g><g id="g855" transform="translate(506.309,246.8135)" style="fill:#ffffff"><path d="m 0,0 c 0,-0.214 -0.048,-0.309 -0.261,-0.332 -0.45,-0.071 -1.091,-0.071 -1.541,0 -0.189,0.023 -0.236,0.118 -0.236,0.332 v 5.497 c 0,2.252 -0.735,3.271 -2.726,3.271 -2.013,0 -3.056,-1.328 -3.056,-3.697 V 0 c 0,-0.214 -0.048,-0.309 -0.261,-0.332 -0.45,-0.071 -1.09,-0.071 -1.54,0 -0.19,0.023 -0.237,0.118 -0.237,0.332 v 9.929 c 0,0.213 0.047,0.307 0.26,0.332 0.213,0.023 0.427,0.023 0.688,0.023 0.213,0 0.45,0 0.686,-0.023 0.191,-0.025 0.286,-0.119 0.309,-0.261 L -7.82,9.241 C -7.82,9.146 -7.773,9.1 -7.654,9.1 h 0.047 c 0.071,0 0.119,0.023 0.166,0.071 0.284,0.308 0.498,0.474 1.043,0.758 0.544,0.284 1.327,0.45 2.274,0.45 C -1.375,10.379 0,8.91 0,5.972 Z" style="fill:#ffffff;fill-opacity:1;fill-rule:nonzero;stroke:none" id="path857"></path></g><g id="g859" transform="translate(510.6948,252.7373)" style="fill:#ffffff"><path d="m 0,0 c 0,-0.118 0.071,-0.189 0.236,-0.189 h 6.138 c 0.166,0 0.237,0.071 0.237,0.237 0,1.919 -1.137,2.938 -3.246,2.938 C 1.256,2.986 0.118,2.015 0,0.048 Z m 0.261,-1.658 c -0.166,0 -0.238,-0.071 -0.238,-0.214 0.143,-1.943 1.494,-2.915 4.052,-2.915 1.043,0 2.204,0.214 3.485,0.664 0.07,0.023 0.118,0.023 0.141,0.023 0.118,0 0.166,-0.071 0.19,-0.189 0.071,-0.308 0.094,-0.64 0.094,-0.972 0,-0.355 0,-0.379 -0.284,-0.521 -0.568,-0.261 -1.967,-0.64 -3.696,-0.64 -3.578,0 -6.138,1.375 -6.138,5.45 0,3.437 1.73,5.451 5.427,5.451 3.53,0 5.379,-1.707 5.379,-5.047 0,-0.309 -0.024,-0.593 -0.048,-0.854 0,-0.189 -0.095,-0.236 -0.308,-0.236 z" style="fill:#ffffff;fill-opacity:1;fill-rule:nonzero;stroke:none" id="path861"></path></g><g id="g863" transform="translate(528.1381,257.1924)" style="fill:#ffffff"><path d="M 0,0 C 0.189,-0.023 0.236,-0.071 0.261,-0.261 0.284,-0.427 0.284,-0.64 0.284,-0.9 0.284,-1.161 0.261,-1.398 0.236,-1.611 0.213,-1.729 0.118,-1.777 0,-1.777 c -0.119,0 -0.64,0.023 -0.948,0.023 -2.204,0 -3.318,-1.161 -3.318,-3.507 v -5.118 c 0,-0.214 -0.047,-0.308 -0.26,-0.332 -0.451,-0.071 -1.09,-0.071 -1.54,0 -0.19,0.024 -0.238,0.118 -0.238,0.332 v 9.929 c 0,0.213 0.048,0.307 0.261,0.332 0.213,0.023 0.427,0.023 0.688,0.023 0.212,0 0.45,0 0.686,-0.023 0.19,-0.025 0.285,-0.119 0.309,-0.261 l 0.094,-0.853 c 0,-0.095 0.047,-0.142 0.166,-0.142 h 0.047 c 0.119,0 0.19,0.023 0.214,0.07 0.64,0.877 1.683,1.327 3.152,1.327 0.237,0 0.473,0 0.687,-0.023" style="fill:#ffffff;fill-opacity:1;fill-rule:nonzero;stroke:none" id="path865"></path></g><g id="g867" transform="translate(537.476,252.0029)" style="fill:#ffffff"><path d="m 0,0 c 0,2.346 -0.925,3.673 -3.271,3.673 -2.345,0 -3.293,-1.327 -3.293,-3.673 0,-2.346 0.948,-3.673 3.293,-3.673 C -0.925,-3.673 0,-2.346 0,0 m -0.355,4.1 c 0.094,0 0.141,0.046 0.165,0.118 l 0.095,0.593 C -0.071,5 0,5.047 0.213,5.071 c 0.189,0.024 0.402,0.024 0.663,0.024 0.261,0 0.498,0 0.687,-0.024 C 1.824,5.047 1.848,4.952 1.848,4.739 v -8.767 c 0,-2.204 -0.64,-5.119 -5.545,-5.119 -1.469,0 -2.583,0.094 -3.318,0.26 -0.189,0.072 -0.237,0.119 -0.26,0.332 v 0.261 c 0,0.308 0.023,0.616 0.071,0.877 0.023,0.118 0.095,0.189 0.213,0.189 h 0.119 c 1.113,-0.213 2.203,-0.332 3.269,-0.332 2.205,0 3.413,0.83 3.413,3.2 0,0.094 -0.047,0.142 -0.142,0.142 h -0.095 c -0.094,0 -0.166,-0.024 -0.237,-0.071 -0.379,-0.284 -0.734,-0.498 -1.09,-0.616 -0.545,-0.213 -1.209,-0.309 -1.967,-0.309 -2.654,0 -4.905,1.47 -4.905,5.214 0,3.768 2.251,5.213 4.905,5.213 2.014,0 2.844,-0.781 3.105,-1.042 C -0.569,4.123 -0.498,4.1 -0.403,4.1 Z" style="fill:#ffffff;fill-opacity:1;fill-rule:nonzero;stroke:none" id="path869"></path></g><g id="g871" transform="translate(545.558,246.4815)" style="fill:#ffffff"><path d="m 0,0 c -0.402,0 -0.568,0.071 -0.663,0.355 l -3.816,9.882 c -0.071,0.19 0.024,0.308 0.238,0.331 0.592,0.096 1.113,0.096 1.611,0.025 0.284,-0.025 0.332,-0.095 0.427,-0.356 L 0.806,1.659 C 0.83,1.588 0.9,1.54 0.996,1.54 h 0.142 c 0.094,0 0.166,0.048 0.189,0.119 l 3.033,8.578 c 0.095,0.261 0.143,0.331 0.404,0.356 0.521,0.071 1.042,0.071 1.588,0 0.259,-0.025 0.284,-0.143 0.212,-0.332 L 1.446,-3.223 C 1.352,-3.507 1.304,-3.555 1.043,-3.578 0.83,-3.602 0.545,-3.626 0.19,-3.626 c -0.308,0 -0.545,0.024 -0.758,0.048 -0.261,0.023 -0.308,0.118 -0.213,0.332 l 1.208,3.103 C 0.45,-0.048 0.427,0 0.332,0 Z" style="fill:#ffffff;fill-opacity:1;fill-rule:nonzero;stroke:none" id="path873"></path></g><g id="g875" transform="translate(563.8071,247.8555)" style="fill:#ffffff"><path d="M 0,0 C 1.256,0 2.133,0.332 2.678,1.02 3.223,1.707 3.507,2.654 3.507,3.91 3.507,5.166 3.223,6.138 2.678,6.802 2.133,7.488 1.256,7.82 0,7.82 -1.232,7.82 -2.133,7.488 -2.678,6.802 -3.223,6.138 -3.483,5.166 -3.483,3.91 c 0,-1.256 0.26,-2.203 0.805,-2.89 C -2.133,0.332 -1.232,0 0,0 m 0,-1.54 c -1.824,0 -3.223,0.474 -4.146,1.398 -0.925,0.948 -1.399,2.299 -1.399,4.052 0,1.777 0.474,3.128 1.399,4.053 C -3.223,8.887 -1.824,9.36 0,9.36 1.825,9.36 3.223,8.887 4.147,7.963 5.071,7.038 5.545,5.687 5.545,3.91 5.545,2.157 5.071,0.806 4.147,-0.142 3.223,-1.066 1.825,-1.54 0,-1.54" style="fill:#ffffff;fill-opacity:1;fill-rule:nonzero;stroke:none" id="path877"></path></g><g id="g879" transform="translate(572.5766,246.8135)" style="fill:#ffffff"><path d="M 0,0 V 8.389 C 0,8.53 -0.071,8.602 -0.236,8.602 h -1.588 c -0.166,0 -0.238,0.071 -0.261,0.213 -0.071,0.356 -0.071,0.901 0,1.208 0.023,0.143 0.095,0.213 0.261,0.213 h 1.588 C -0.071,10.236 0,10.308 0,10.45 v 1.09 c 0,2.583 1.517,3.815 4.147,3.815 0.924,0 1.707,-0.118 2.346,-0.332 0.19,-0.071 0.213,-0.094 0.237,-0.307 V 14.431 C 6.73,14.123 6.706,13.862 6.659,13.649 6.636,13.53 6.588,13.46 6.47,13.46 c -0.048,0 -0.095,0 -0.119,0.023 -0.687,0.166 -1.351,0.261 -1.943,0.261 -1.777,0 -2.37,-0.711 -2.37,-2.417 V 10.45 c 0,-0.142 0.071,-0.214 0.213,-0.214 h 2.797 c 0.166,0 0.261,-0.07 0.284,-0.213 0.023,-0.307 0.023,-0.852 0,-1.208 C 5.309,8.673 5.214,8.602 5.048,8.602 H 2.251 C 2.109,8.602 2.038,8.53 2.038,8.389 V 0 c 0,-0.214 -0.047,-0.309 -0.261,-0.332 -0.45,-0.071 -1.09,-0.071 -1.54,0 C 0.048,-0.309 0,-0.214 0,0" style="fill:#ffffff;fill-opacity:1;fill-rule:nonzero;stroke:none" id="path881"></path></g><g id="g883" transform="translate(588.9243,258.4482)" style="fill:#ffffff"><path d="M 0,0 C 0,0.166 -0.071,0.261 -0.237,0.261 H -4.74 c -0.19,0 -0.26,0.048 -0.26,0.237 -0.071,0.356 -0.071,0.853 0,1.232 0,0.19 0.07,0.237 0.26,0.237 H 6.872 C 7.062,1.967 7.133,1.92 7.156,1.73 7.18,1.351 7.18,0.854 7.156,0.498 7.133,0.309 7.062,0.261 6.872,0.261 H 2.393 C 2.228,0.261 2.132,0.166 2.132,0 v -11.635 c 0,-0.214 -0.047,-0.308 -0.236,-0.332 -0.379,-0.095 -1.256,-0.095 -1.66,0 C 0.047,-11.943 0,-11.849 0,-11.635 Z" style="fill:#ffffff;fill-opacity:1;fill-rule:nonzero;stroke:none" id="path885"></path></g><g id="g887" transform="translate(595.6557,252.7373)" style="fill:#ffffff"><path d="m 0,0 c 0,-0.118 0.071,-0.189 0.236,-0.189 h 6.138 c 0.166,0 0.237,0.071 0.237,0.237 0,1.919 -1.137,2.938 -3.246,2.938 C 1.256,2.986 0.118,2.015 0,0.048 Z m 0.261,-1.658 c -0.166,0 -0.238,-0.071 -0.238,-0.214 0.143,-1.943 1.494,-2.915 4.052,-2.915 1.043,0 2.204,0.214 3.485,0.664 0.07,0.023 0.118,0.023 0.141,0.023 0.118,0 0.166,-0.071 0.19,-0.189 0.071,-0.308 0.094,-0.64 0.094,-0.972 0,-0.355 0,-0.379 -0.284,-0.521 -0.568,-0.261 -1.967,-0.64 -3.696,-0.64 -3.578,0 -6.138,1.375 -6.138,5.45 0,3.437 1.73,5.451 5.427,5.451 3.53,0 5.379,-1.707 5.379,-5.047 0,-0.309 -0.024,-0.593 -0.048,-0.854 0,-0.189 -0.095,-0.236 -0.308,-0.236 z" style="fill:#ffffff;fill-opacity:1;fill-rule:nonzero;stroke:none" id="path889"></path></g><g id="g891" transform="translate(608.6899,251.7656)" style="fill:#ffffff"><path d="m 0,0 c 0,-2.583 1.232,-3.862 3.721,-3.862 1.066,0 2.203,0.213 3.412,0.639 0.071,0.024 0.095,0.024 0.118,0.024 0.119,0 0.189,-0.071 0.214,-0.213 0.047,-0.308 0.07,-0.593 0.07,-0.877 0,-0.308 0.025,-0.427 -0.26,-0.522 -0.64,-0.284 -2.062,-0.639 -3.554,-0.639 -3.673,0 -5.783,1.754 -5.783,5.45 0,3.697 2.11,5.45 5.783,5.45 1.516,0 2.962,-0.331 3.554,-0.616 C 7.535,4.716 7.535,4.669 7.535,4.313 7.535,4.005 7.512,3.721 7.465,3.412 7.44,3.294 7.37,3.223 7.251,3.223 c -0.023,0 -0.047,0 -0.118,0.024 C 5.924,3.649 4.787,3.863 3.721,3.863 1.232,3.863 0,2.583 0,0" style="fill:#ffffff;fill-opacity:1;fill-rule:nonzero;stroke:none" id="path893"></path></g><g id="g895" transform="translate(620.8246,246.8135)" style="fill:#ffffff"><path d="m 0,0 c 0,-0.214 -0.048,-0.309 -0.261,-0.332 -0.45,-0.071 -1.09,-0.071 -1.54,0 C -1.99,-0.309 -2.038,-0.214 -2.038,0 v 14.502 c 0,0.214 0.048,0.309 0.237,0.332 0.45,0.071 1.09,0.071 1.54,0 C -0.048,14.811 0,14.716 0,14.502 V 9.384 C 0,9.312 0.047,9.266 0.118,9.266 h 0.071 c 0.095,0 0.166,0.023 0.238,0.094 0.758,0.687 1.777,1.019 3.08,1.019 2.938,0 4.313,-1.399 4.313,-4.407 V 0 c 0,-0.214 -0.048,-0.309 -0.26,-0.332 -0.451,-0.071 -1.091,-0.071 -1.541,0 C 5.829,-0.309 5.782,-0.214 5.782,0 v 5.474 c 0,2.251 -0.735,3.27 -2.725,3.27 C 1.043,8.744 0,7.417 0,5.047 Z" style="fill:#ffffff;fill-opacity:1;fill-rule:nonzero;stroke:none" id="path897"></path></g><g id="g899" transform="translate(641.6332,246.8135)" style="fill:#ffffff"><path d="m 0,0 c 0,-0.214 -0.048,-0.309 -0.261,-0.332 -0.45,-0.071 -1.091,-0.071 -1.541,0 -0.189,0.023 -0.236,0.118 -0.236,0.332 v 5.497 c 0,2.252 -0.735,3.271 -2.726,3.271 -2.013,0 -3.056,-1.328 -3.056,-3.697 V 0 c 0,-0.214 -0.048,-0.309 -0.261,-0.332 -0.45,-0.071 -1.09,-0.071 -1.54,0 -0.19,0.023 -0.237,0.118 -0.237,0.332 v 9.929 c 0,0.213 0.047,0.307 0.26,0.332 0.213,0.023 0.427,0.023 0.688,0.023 0.213,0 0.45,0 0.686,-0.023 0.191,-0.025 0.286,-0.119 0.309,-0.261 L -7.82,9.241 C -7.82,9.146 -7.773,9.1 -7.654,9.1 h 0.047 c 0.071,0 0.119,0.023 0.166,0.071 0.284,0.308 0.498,0.474 1.043,0.758 0.544,0.284 1.327,0.45 2.274,0.45 C -1.375,10.379 0,8.91 0,5.972 Z" style="fill:#ffffff;fill-opacity:1;fill-rule:nonzero;stroke:none" id="path901"></path></g><g id="g903" transform="translate(649.4301,247.8555)" style="fill:#ffffff"><path d="M 0,0 C 1.256,0 2.133,0.332 2.678,1.02 3.223,1.707 3.507,2.654 3.507,3.91 3.507,5.166 3.223,6.138 2.678,6.802 2.133,7.488 1.256,7.82 0,7.82 -1.232,7.82 -2.133,7.488 -2.678,6.802 -3.223,6.138 -3.483,5.166 -3.483,3.91 c 0,-1.256 0.26,-2.203 0.805,-2.89 C -2.133,0.332 -1.232,0 0,0 m 0,-1.54 c -1.824,0 -3.223,0.474 -4.146,1.398 -0.925,0.948 -1.399,2.299 -1.399,4.052 0,1.777 0.474,3.128 1.399,4.053 C -3.223,8.887 -1.824,9.36 0,9.36 1.825,9.36 3.223,8.887 4.147,7.963 5.071,7.038 5.545,5.687 5.545,3.91 5.545,2.157 5.071,0.806 4.147,-0.142 3.223,-1.066 1.825,-1.54 0,-1.54" style="fill:#ffffff;fill-opacity:1;fill-rule:nonzero;stroke:none" id="path905"></path></g><g id="g907" transform="translate(659.5981,248.3301)" style="fill:#ffffff"><path d="m 0,0 c 0,-0.143 0.071,-0.214 0.213,-0.214 h 0.83 c 0.165,0 0.261,-0.07 0.284,-0.213 0.024,-0.308 0.024,-0.853 0,-1.209 C 1.304,-1.777 1.208,-1.849 1.043,-1.849 h -1.02 c -1.516,0 -2.061,0.332 -2.061,1.778 v 13.056 c 0,0.214 0.048,0.309 0.237,0.332 0.45,0.072 1.09,0.072 1.54,0 C -0.048,13.294 0,13.199 0,12.985 Z" style="fill:#ffffff;fill-opacity:1;fill-rule:nonzero;stroke:none" id="path909"></path></g><g id="g911" transform="translate(668.4145,247.8555)" style="fill:#ffffff"><path d="M 0,0 C 1.256,0 2.133,0.332 2.678,1.02 3.223,1.707 3.507,2.654 3.507,3.91 3.507,5.166 3.223,6.138 2.678,6.802 2.133,7.488 1.256,7.82 0,7.82 -1.232,7.82 -2.133,7.488 -2.678,6.802 -3.223,6.138 -3.483,5.166 -3.483,3.91 c 0,-1.256 0.26,-2.203 0.805,-2.89 C -2.133,0.332 -1.232,0 0,0 m 0,-1.54 c -1.824,0 -3.223,0.474 -4.146,1.398 -0.925,0.948 -1.399,2.299 -1.399,4.052 0,1.777 0.474,3.128 1.399,4.053 C -3.223,8.887 -1.824,9.36 0,9.36 1.825,9.36 3.223,8.887 4.147,7.963 5.071,7.038 5.545,5.687 5.545,3.91 5.545,2.157 5.071,0.806 4.147,-0.142 3.223,-1.066 1.825,-1.54 0,-1.54" style="fill:#ffffff;fill-opacity:1;fill-rule:nonzero;stroke:none" id="path913"></path></g><g id="g915" transform="translate(684.5307,252.0029)" style="fill:#ffffff"><path d="m 0,0 c 0,2.346 -0.925,3.673 -3.271,3.673 -2.345,0 -3.293,-1.327 -3.293,-3.673 0,-2.346 0.948,-3.673 3.293,-3.673 C -0.925,-3.673 0,-2.346 0,0 m -0.355,4.1 c 0.094,0 0.141,0.046 0.165,0.118 l 0.095,0.593 C -0.071,5 0,5.047 0.213,5.071 c 0.189,0.024 0.402,0.024 0.663,0.024 0.261,0 0.498,0 0.687,-0.024 C 1.824,5.047 1.848,4.952 1.848,4.739 v -8.767 c 0,-2.204 -0.64,-5.119 -5.545,-5.119 -1.469,0 -2.583,0.094 -3.318,0.26 -0.189,0.072 -0.237,0.119 -0.26,0.332 v 0.261 c 0,0.308 0.023,0.616 0.071,0.877 0.023,0.118 0.095,0.189 0.213,0.189 h 0.119 c 1.113,-0.213 2.203,-0.332 3.269,-0.332 2.205,0 3.413,0.83 3.413,3.2 0,0.094 -0.047,0.142 -0.142,0.142 h -0.095 c -0.094,0 -0.166,-0.024 -0.237,-0.071 -0.379,-0.284 -0.734,-0.498 -1.09,-0.616 -0.545,-0.213 -1.209,-0.309 -1.967,-0.309 -2.654,0 -4.905,1.47 -4.905,5.214 0,3.768 2.251,5.213 4.905,5.213 2.014,0 2.844,-0.781 3.105,-1.042 C -0.569,4.123 -0.498,4.1 -0.403,4.1 Z" style="fill:#ffffff;fill-opacity:1;fill-rule:nonzero;stroke:none" id="path917"></path></g><g id="g919" transform="translate(692.6127,246.4815)" style="fill:#ffffff"><path d="m 0,0 c -0.402,0 -0.568,0.071 -0.663,0.355 l -3.816,9.882 c -0.071,0.19 0.024,0.308 0.238,0.331 0.592,0.096 1.113,0.096 1.611,0.025 0.284,-0.025 0.332,-0.095 0.427,-0.356 L 0.806,1.659 C 0.83,1.588 0.9,1.54 0.996,1.54 h 0.142 c 0.094,0 0.166,0.048 0.189,0.119 l 3.033,8.578 c 0.095,0.261 0.143,0.331 0.404,0.356 0.521,0.071 1.042,0.071 1.588,0 0.259,-0.025 0.284,-0.143 0.212,-0.332 L 1.446,-3.223 C 1.352,-3.507 1.304,-3.555 1.043,-3.578 0.83,-3.602 0.545,-3.626 0.19,-3.626 c -0.308,0 -0.545,0.024 -0.758,0.048 -0.261,0.023 -0.308,0.118 -0.213,0.332 l 1.208,3.103 C 0.45,-0.048 0.427,0 0.332,0 Z" style="fill:#ffffff;fill-opacity:1;fill-rule:nonzero;stroke:none" id="path921"></path></g></g></g><g id="g923"><g id="g925" clip-path="url(#clipPath929)"><g id="g931"><g id="g933"><path d="m 138.052,339.107 c -1.013,-1.226 -1.589,-2.833 -1.589,-4.548 v 0 c 0,-3.917 3.176,-7.093 7.094,-7.093 v 0 c 1.943,0 3.691,0.75 4.973,2.017 v 0 c 0.001,-0.003 0.006,0.004 0.011,0.011 v 0 c 0.006,0.006 0.011,0.012 0.013,0.011 v 0 c 5.262,5.49 12.595,8.686 20.284,8.686 v 0 c 5.497,0 10.79,-1.595 15.316,-4.548 v 0 c 0,0 1.628,-0.948 3.562,-0.96 v 0 c 3.924,-0.025 7.141,3.217 7.141,7.142 v 0 c 0,2.321 -1.118,4.376 -2.838,5.672 v 0 c -0.316,0.208 -0.635,0.414 -0.957,0.614 v 0 c -6.628,4.101 -14.285,6.309 -22.224,6.309 v 0 c -11.69,0 -22.846,-4.907 -30.786,-13.313" style="fill:url(#linearGradient941);stroke:none" id="path943"></path></g></g></g></g><g id="g945"><g id="g947" clip-path="url(#clipPath951)"><g id="g953"><g id="g955"><path d="m 151.435,317.231 h -6.511 c -14.118,0 -19.468,-11.443 -15.394,-22.133 v 0 c 0.185,-0.487 0.383,-0.968 0.587,-1.447 v 0 c 0.049,-0.119 0.101,-0.237 0.153,-0.356 v 0 c 0.11,-0.253 0.223,-0.505 0.337,-0.754 v 0 c 0.082,-0.179 0.164,-0.356 0.248,-0.533 v 0 c 0.13,-0.273 0.262,-0.542 0.398,-0.812 v 0 c 0.072,-0.143 0.142,-0.288 0.216,-0.43 v 0 c 0.007,-0.015 0.016,-0.03 0.024,-0.045 v 0 c 0.004,0.002 -0.002,0.045 -0.014,0.112 v 0 c -0.201,1.178 -2.349,11.77 10.417,12.174 v 0 c 0.007,0 0.012,0 0.019,0 v 0 h 38.319 c 3.923,0 7.114,3.191 7.114,7.114 v 0 c 0,3.894 -3.148,7.064 -7.031,7.11 v 0 z" style="fill:url(#linearGradient963);stroke:none" id="path965"></path></g></g></g></g><g id="g967"><g id="g969" clip-path="url(#clipPath973)"><g id="g975"><g id="g977"><path d="m 259.982,290.759 c -0.003,0.002 -0.008,-0.004 -0.013,-0.011 v 0 c -0.005,-0.007 -0.01,-0.013 -0.011,-0.011 v 0 c -5.263,-5.49 -12.597,-8.686 -20.284,-8.686 v 0 c -5.498,0 -10.791,1.595 -15.317,4.549 v 0 c 0,0 -1.628,0.947 -3.561,0.96 v 0 c -3.926,0.024 -7.141,-3.218 -7.141,-7.142 v 0 c 0,-2.322 1.116,-4.376 2.837,-5.673 v 0 c 0.317,-0.208 0.636,-0.414 0.958,-0.613 v 0 c 6.627,-4.102 14.284,-6.31 22.224,-6.31 v 0 c 11.69,0 22.846,4.907 30.785,13.313 v 0 c 1.013,1.226 1.589,2.833 1.589,4.548 v 0 c 0,3.917 -3.176,7.093 -7.093,7.093 v 0 c -1.943,0 -3.692,-0.749 -4.973,-2.017" style="fill:url(#linearGradient985);stroke:none" id="path987"></path></g></g></g></g><g id="g989"><g id="g991" clip-path="url(#clipPath995)"><g id="g997"><g id="g999"><path d="m 277.032,329.409 c 0.202,-1.178 2.35,-11.77 -10.417,-12.173 v 0 c -0.006,0 -0.012,0 -0.018,0 v 0 h -38.319 c -3.923,0 -7.115,-3.192 -7.115,-7.114 v 0 c 0,-3.895 3.148,-7.065 7.032,-7.111 v 0 h 28.882 6.51 c 14.119,0 19.469,11.443 15.394,22.133 v 0 c -0.185,0.487 -0.383,0.968 -0.586,1.447 v 0 c -0.051,0.119 -0.102,0.238 -0.154,0.356 v 0 c -0.109,0.253 -0.222,0.505 -0.336,0.755 v 0 c -0.082,0.178 -0.164,0.356 -0.249,0.532 v 0 c -0.129,0.273 -0.263,0.543 -0.398,0.812 v 0 c -0.072,0.143 -0.142,0.288 -0.216,0.431 v 0 c -0.008,0.015 -0.015,0.029 -0.023,0.044 v 0 c -0.005,-0.001 0.002,-0.044 0.013,-0.112" style="fill:url(#linearGradient1007);stroke:none" id="path1009"></path></g></g></g></g><g id="g1011"><g id="g1013" clip-path="url(#clipPath1017)"><g id="g1019"><g id="g1021"><path d="m 197.141,310.122 v -0.023 c -0.011,-15.468 -12.599,-28.048 -28.07,-28.048 v 0 c -12.723,0 -23.951,8.739 -27.155,20.952 v 0 c 0,0 -0.014,0.002 -0.02,0.004 v 0 c -12.766,-0.404 -10.618,-10.996 -10.417,-12.174 v 0 c 0.017,-0.06 0.026,-0.105 0.014,-0.112 v 0 c 7.045,-13.59 21.244,-22.899 37.578,-22.899 v 0 c 23.324,0 42.299,18.976 42.299,42.299 v 0 0.023 h -0.001 c 0.013,15.468 12.6,28.048 28.071,28.048 v 0 c 12.723,0 23.951,-8.741 27.156,-20.952 v 0 c 0,0 0.013,-0.003 0.019,-0.004 v 0 c 12.767,0.403 10.619,10.995 10.417,12.173 v 0 c -0.016,0.06 -0.025,0.106 -0.013,0.113 v 0 c -7.045,13.589 -21.244,22.898 -37.579,22.898 v 0 c -23.323,0 -42.299,-18.975 -42.299,-42.298" style="fill:url(#linearGradient1035);stroke:none" id="path1037"></path></g></g></g></g><g id="g1039" style="fill:#ffffff"><g id="g1041" clip-path="url(#clipPath1045)" style="fill:#ffffff"><g id="g1047" transform="translate(576.4067,298.5288)" style="fill:#ffffff"><path d="m 0,0 c 0,0 0.169,8.213 -3.969,11.864 -3.307,2.919 -8.15,4.564 -15.812,4.564 L -33.36,16.415 c -4.429,0 -6.729,0.492 -7.94,1.698 -0.97,0.966 -1.388,2.589 -1.397,5.403 0.07,1.621 0.575,2.712 1.551,3.683 1.63,1.625 4.64,2.449 8.946,2.449 l 25.218,-0.017 c 2.739,0 4.96,2.221 4.96,4.96 0,2.79 -2.284,5.074 -5.075,5.074 h -24.986 c -8,0 -13.825,-1.762 -17.313,-5.237 -2.615,-2.605 -3.941,-7.162 -3.941,-11.615 0,-0.334 0.013,0 0.013,0 0.01,-5.585 1.325,-9.235 3.97,-11.869 3.125,-3.113 8.149,-4.564 15.811,-4.564 l 13.58,0.014 c 4.428,0 6.728,-0.493 7.939,-1.699 0.969,-0.966 1.388,-2.588 1.397,-5.403 -0.07,-1.621 -0.575,-2.711 -1.55,-3.683 -1.631,-1.625 -4.641,-2.448 -8.947,-2.448 l -25.879,0.016 c -2.739,0 -4.96,-2.22 -4.96,-4.96 0,-2.79 2.283,-5.073 5.074,-5.073 h 25.648 c 8,0 13.825,1.762 17.312,5.236 2.616,2.606 3.943,6.185 3.942,10.638 C 0.013,-0.648 0.008,-0.322 0,0" style="fill:#ffffff;fill-opacity:1;fill-rule:nonzero;stroke:none" id="path1049"></path></g><g id="g1051" transform="translate(624.1147,291.5264)" style="fill:#ffffff"><path d="m 0,0 h -8.628 l -0.037,-0.298 0.036,0.288 c -0.096,-10e-4 -0.186,-0.003 -0.283,-0.003 l -11.363,0.024 v -0.026 h -1.857 c -4.305,0 -7.316,0.824 -8.947,2.449 -0.975,0.971 -1.48,2.86 -1.55,4.481 0.009,2.814 0.428,3.816 1.398,4.783 1.21,1.206 3.51,1.698 7.938,1.698 h 24.91 v -1.098 c 0.014,0.01 0.025,0.017 0.038,0.027 L 1.649,1.649 C 1.649,0.738 0.91,0 0,0 m 12.12,29.555 c 0,5.682 -1.264,9.587 -3.974,12.288 -3.126,3.113 -8.151,4.564 -15.813,4.564 h -26.244 c -2.739,0 -4.96,-2.221 -4.96,-4.96 0,-2.791 2.283,-5.075 5.074,-5.075 h 26.051 c 4.428,0 6.728,-0.492 7.939,-1.698 0.981,-0.977 1.399,-2.619 1.399,-5.492 L 1.601,23.43 h -25.076 c -7.662,0 -12.686,-1.45 -15.812,-4.563 -2.644,-2.634 -3.906,-6.416 -3.969,-11.869 v 0.004 c -0.033,-4.209 1.314,-9.014 3.929,-11.619 3.487,-3.475 9.312,-5.237 17.312,-5.237 l 28.647,0.016 c 3.031,0 5.488,2.457 5.488,5.488 z" style="fill:#ffffff;fill-opacity:1;fill-rule:nonzero;stroke:none" id="path1053"></path></g><g id="g1055" transform="translate(709.5414,333.7124)" style="fill:#ffffff"><path d="m 0,0 c 0,-0.47 -0.264,-0.689 -0.831,-0.689 h -1.114 v 1.378 h 1.114 C -0.264,0.689 0,0.47 0,0 m 0.171,-1.382 c 0.174,0.089 0.349,0.259 0.522,0.505 0.176,0.249 0.266,0.543 0.266,0.874 0,0.488 -0.173,0.901 -0.516,1.229 -0.339,0.326 -0.788,0.491 -1.329,0.491 h -2.088 v -5.419 h 1.029 v 1.985 h 1.061 L 0.171,-3.655 0.194,-3.702 H 1.308 L 0,-1.46 Z" style="fill:#ffffff;fill-opacity:1;fill-rule:nonzero;stroke:none" id="path1057"></path></g><g id="g1059" transform="translate(712.5912,332.7202)" style="fill:#ffffff"><path d="m 0,0 c 0,-1.178 -0.402,-2.177 -1.194,-2.969 -0.793,-0.793 -1.792,-1.195 -2.97,-1.195 -1.178,0 -2.176,0.402 -2.967,1.194 -0.789,0.793 -1.19,1.792 -1.19,2.97 0,1.178 0.401,2.176 1.19,2.966 0.791,0.791 1.789,1.191 2.967,1.191 1.178,0 2.177,-0.4 2.97,-1.191 C -0.402,2.176 0,1.178 0,0 m -0.434,3.673 c -1.015,1.004 -2.27,1.513 -3.73,1.513 -1.46,0 -2.714,-0.509 -3.728,-1.513 C -8.904,2.668 -9.418,1.433 -9.418,0 c 0,-1.433 0.514,-2.668 1.526,-3.672 1.014,-1.004 2.268,-1.513 3.728,-1.513 1.46,0 2.715,0.509 3.73,1.513 1.016,1.004 1.531,2.239 1.531,3.672 0,1.433 -0.515,2.668 -1.531,3.673" style="fill:#ffffff;fill-opacity:1;fill-rule:nonzero;stroke:none" id="path1061"></path></g><g id="g1063" transform="translate(491.3725,281.624)" style="fill:#ffffff"><path d="m 0,0 v 0 c -2.914,0 -5.277,2.362 -5.277,5.277 v 45.766 c 0,2.914 2.363,5.277 5.277,5.277 2.914,0 5.276,-2.363 5.276,-5.277 V 5.277 C 5.276,2.362 2.914,0 0,0" style="fill:#ffffff;fill-opacity:1;fill-rule:nonzero;stroke:none" id="path1065"></path></g><g id="g1067" transform="translate(510.3618,281.624)" style="fill:#ffffff"><path d="m 0,0 h -0.001 c -2.914,0 -5.276,2.362 -5.276,5.277 v 59.869 c 0,2.914 2.362,5.276 5.276,5.276 H 0 c 2.914,0 5.276,-2.362 5.276,-5.276 V 5.277 C 5.276,2.362 2.914,0 0,0" style="fill:#ffffff;fill-opacity:1;fill-rule:nonzero;stroke:none" id="path1069"></path></g><g id="g1071" transform="translate(496.4848,346.8154)" style="fill:#ffffff"><path d="m 0,0 c 0,-2.884 -2.338,-5.222 -5.223,-5.222 -2.883,0 -5.221,2.338 -5.221,5.222 0,2.884 2.338,5.222 5.221,5.222 C -2.338,5.222 0,2.884 0,0" style="fill:#ffffff;fill-opacity:1;fill-rule:nonzero;stroke:none" id="path1073"></path></g><g id="g1075" transform="translate(413.9828,298.5288)" style="fill:#ffffff"><path d="m 0,0 c 0,0 0.169,8.213 -3.969,11.864 -3.307,2.919 -8.15,4.564 -15.812,4.564 L -33.36,16.415 c -4.429,0 -6.729,0.492 -7.94,1.698 -0.97,0.966 -1.388,2.589 -1.397,5.403 0.07,1.621 0.576,2.712 1.551,3.683 1.63,1.625 4.64,2.449 8.946,2.449 l 25.218,-0.017 c 2.739,0 4.96,2.221 4.96,4.96 0,2.79 -2.284,5.074 -5.074,5.074 h -24.987 c -8,0 -13.825,-1.762 -17.313,-5.237 -2.615,-2.605 -3.941,-7.162 -3.941,-11.615 0,-0.334 0.013,0 0.013,0 0.01,-5.585 1.325,-9.235 3.97,-11.869 3.125,-3.113 8.149,-4.564 15.812,-4.564 l 13.579,0.014 c 4.428,0 6.728,-0.493 7.939,-1.699 0.969,-0.966 1.388,-2.588 1.397,-5.403 -0.07,-1.621 -0.575,-2.711 -1.55,-3.683 -1.631,-1.625 -4.641,-2.448 -8.947,-2.448 l -25.879,0.016 c -2.739,0 -4.96,-2.22 -4.96,-4.96 0,-2.79 2.283,-5.073 5.074,-5.073 h 25.649 c 8,0 13.824,1.762 17.311,5.236 2.617,2.606 3.943,6.185 3.942,10.638 C 0.013,-0.648 0.009,-0.322 0,0" style="fill:#ffffff;fill-opacity:1;fill-rule:nonzero;stroke:none" id="path1077"></path></g><g id="g1079" transform="translate(341.9496,291.5264)" style="fill:#ffffff"><path d="m 0,0 h -8.627 l -0.037,-0.298 0.036,0.288 c -0.096,-10e-4 -0.186,-0.003 -0.283,-0.003 l -11.364,0.024 v -0.026 h -1.857 c -4.305,0 -7.315,0.824 -8.946,2.449 -0.975,0.971 -1.48,2.86 -1.55,4.481 0.009,2.814 0.427,3.816 1.398,4.783 1.21,1.206 3.51,1.698 7.938,1.698 h 24.91 v -1.098 c 0.014,0.01 0.025,0.017 0.038,0.027 L 1.65,1.649 C 1.649,0.738 0.911,0 0,0 m 12.121,29.555 c 0,5.682 -1.264,9.587 -3.975,12.288 -3.125,3.113 -8.15,4.564 -15.812,4.564 H -33.91 c -2.739,0 -4.96,-2.221 -4.96,-4.96 -0.001,-2.791 2.283,-5.075 5.074,-5.075 h 26.051 c 4.428,0 6.727,-0.492 7.938,-1.698 0.982,-0.977 1.4,-2.619 1.4,-5.492 L 1.602,23.43 h -25.076 c -7.663,0 -12.687,-1.45 -15.812,-4.563 -2.644,-2.634 -3.907,-6.416 -3.969,-11.869 v 0.004 c -0.033,-4.209 1.313,-9.014 3.929,-11.619 3.487,-3.475 9.311,-5.237 17.311,-5.237 l 28.648,0.016 c 3.031,0 5.488,2.457 5.488,5.488 z" style="fill:#ffffff;fill-opacity:1;fill-rule:nonzero;stroke:none" id="path1081"></path></g><g id="g1083" transform="translate(467.5805,312.2935)" style="fill:#ffffff"><path d="m 0,0 v -8.981 c 0,-9.653 -1.771,-11.606 -10.529,-11.606 l -11.364,0.023 -13.504,0.027 c -0.816,0.002 -1.476,0.663 -1.475,1.479 l 0.002,33.222 c 10e-4,0.91 0.739,1.649 1.65,1.649 L -10.412,15.8 c 4.5,0 6.906,-0.569 8.306,-1.964 C -0.61,12.346 0,9.643 0,4.505 Z m 10.529,3.51 c 0,8.687 -1.472,13.859 -4.923,17.297 -3.309,3.297 -8.405,4.832 -16.038,4.832 l -31.477,0.012 c -3.031,0 -5.488,-2.457 -5.488,-5.488 l -0.099,-59.561 c -0.005,-2.92 2.361,-5.29 5.282,-5.29 2.917,0 5.282,2.365 5.282,5.282 l 0.019,8.573 c 10e-4,0.118 0.097,0.212 0.214,0.212 h 26.385 c 17.432,0 20.843,8.178 20.843,22.306 z" style="fill:#ffffff;fill-opacity:1;fill-rule:nonzero;stroke:none" id="path1085"></path></g><g id="g1087" transform="translate(701.8764,315.8037)" style="fill:#ffffff"><path d="m 0,0 c 0,8.687 -1.472,13.859 -4.922,17.296 -3.309,3.297 -8.406,4.833 -16.038,4.833 l -29.064,0.012 h -2.414 c -3.031,0 -5.488,-2.457 -5.488,-5.488 l -0.027,-45.521 c -0.004,-2.904 2.349,-5.261 5.254,-5.261 h 0.043 c 2.901,0 5.253,2.352 5.254,5.252 l 0.004,39.53 c 0,0.911 0.739,1.649 1.649,1.649 L -20.94,12.29 c 4.5,0 6.905,-0.569 8.305,-1.964 1.496,-1.49 2.107,-4.194 2.107,-9.331 l 0.005,-29.872 c 10e-4,-2.9 2.353,-5.252 5.253,-5.252 h 0.044 c 2.905,0 5.258,2.357 5.254,5.261 z" style="fill:#ffffff;fill-opacity:1;fill-rule:nonzero;stroke:none" id="path1089"></path></g></g></g></g></g></svg> 